<?xml version="1.0" standalone="no"?>
<!DOCTYPE svg PUBLIC "-//W3C//DTD SVG 1.1//EN" "http://www.w3.org/Graphics/SVG/1.1/DTD/svg11.dtd" >
<svg xmlns="http://www.w3.org/2000/svg" xmlns:xlink="http://www.w3.org/1999/xlink" version="1.1">
<metadata></metadata>
<defs>
<font id="fuguemono" horiz-adv-x="1167" >
<font-face units-per-em="2048" ascent="1556" descent="-492" />
<missing-glyph horiz-adv-x="500" />
<glyph unicode="&#xfb01;" d="M61 799v143l21 21h143v286q0 142 78.5 224.5t228.5 82.5l41 -20v-143l-20 -21h-31q-45 0 -68.5 -27.5t-23.5 -74.5v-307h512l21 -21v-758h122l21 -20v-144l-21 -20h-491l-21 20v144l21 20h164v594h-328v-758l-20 -20h-164l-21 20v758h-143zM737 1229v246l21 20h205 l20 -20v-246l-20 -21h-205z" />
<glyph unicode="&#xfb02;" d="M61 799v143l21 21h143v286q0 142 78.5 224.5t228.5 82.5l410 -20l21 -20v-1147l20 -185h102l21 -20v-144l-21 -20h-491l-21 20v144l21 20h184l-20 185v409h-328v-758l-20 -20h-164l-21 20v758h-143zM430 963h328v397l-236 12q-45 0 -68.5 -27.5t-23.5 -74.5v-307z" />
<glyph horiz-adv-x="0" />
<glyph horiz-adv-x="682" />
<glyph unicode=" " />
<glyph unicode="!" d="M440 20v205l21 21h246l20 -21v-205l-20 -20h-246zM461 1475l20 20h205l21 -20l-21 -512l-72 -574l-20 -20h-21l-20 20l-72 574z" />
<glyph unicode="&#x22;" d="M328 942v533l20 20h144l20 -20v-533l-20 -20h-144zM655 942v533l21 20h143l21 -20v-533l-21 -20h-143z" />
<glyph unicode="#" d="M61 410v102l21 20h178l68 431h-185l-20 20v102l20 21h207l58 369l22 20h102l21 -20l-53 -369h280l60 369l20 20h103l20 -20l-53 -369h155l21 -21v-102l-21 -20h-178l-67 -431h184l20 -20v-102l-20 -21h-207l-59 -369l-21 -20h-102l-21 20l54 369h-279l-61 -369l-21 -20 h-102l-21 20l56 369h-158zM410 532h280l68 431h-281z" />
<glyph unicode="$" d="M143 430l21 21h160l20 -21q-3 -74 37 -138t111 -91v477l-72 33q-277 133 -277 385q0 91 40.5 172t121 140.5t187.5 78.5v131l20 20h143l21 -20v-133q157 -31 252.5 -154t95.5 -266l-20 -21h-160l-21 21q2 74 -37.5 138.5t-109.5 92.5v-479l61 -24q133 -54 210 -159 t77 -235q0 -141 -94.5 -252.5t-253.5 -138.5v-192l-21 -21h-143l-20 21v192q-106 21 -187.5 87.5t-121.5 154t-40 180.5zM342 1096q0 -64 43.5 -116t106.5 -83v401q-73 -22 -111.5 -77.5t-38.5 -124.5zM676 197q73 22 111 77t38 125q0 65 -41.5 121t-107.5 84v-407z" />
<glyph unicode="%" d="M102 287v20l799 881l31 20h133v-20l-799 -881l-30 -20h-134zM123 1219q0 131 76.5 214t199.5 83t200 -83t77 -214t-77 -214t-200 -83t-199.5 83t-76.5 214zM266 1219q0 -76 35.5 -119t97.5 -43t97.5 43t35.5 119t-35.5 118.5t-97.5 42.5t-97.5 -42.5t-35.5 -118.5z M492 297q0 131 76.5 214t199.5 83t199.5 -83t76.5 -214t-76.5 -214t-199.5 -83t-199.5 83t-76.5 214zM635 297q0 -76 35.5 -119t97.5 -43t97.5 43t35.5 119t-35.5 119t-97.5 43t-97.5 -43t-35.5 -119z" />
<glyph unicode="&#x26;" d="M61 451q0 126 59.5 219.5t162.5 146.5q-74 52 -117 128.5t-43 170.5q0 179 116.5 289.5t313.5 110.5h41l20 -21v-143l-20 -21h-41q-106 0 -171 -60.5t-65 -154.5t65 -154.5t171 -60.5h215v225l174 205h21v-430h163l21 -20v-144l-21 -20h-163v-697l-21 -20h-389 q-140 0 -253.5 61.5t-176 164.5t-62.5 225zM256 451q0 -117 80 -187.5t217 -70.5h215v524h-215q-138 0 -217.5 -71.5t-79.5 -194.5z" />
<glyph unicode="'" d="M389 942v533l21 20h348l20 -20v-533l-20 -20h-348z" />
<glyph unicode="(" d="M287 758q0 142 38.5 273.5t100.5 231.5t144 184.5t164.5 140t166.5 91.5h21l61 -92v-20q-76 -31 -150 -83t-143.5 -128t-122 -165t-84.5 -201.5t-32 -231.5t32 -231.5t85 -201.5t122.5 -165t143.5 -128t149 -83v-21l-61 -92h-21q-84 36 -166.5 91.5t-164.5 140.5 t-144 185t-100.5 231.5t-38.5 273.5z" />
<glyph unicode=")" d="M184 -51q95 40 186.5 113t170.5 174.5t127.5 238t48.5 283.5t-48 283.5t-127 238t-170.5 174.5t-187.5 113v20l62 92h20q84 -36 166.5 -91.5t164.5 -140t144.5 -184.5t101 -231.5t38.5 -273.5t-38.5 -273.5t-101 -231.5t-144.5 -185t-164.5 -140.5t-166.5 -91.5h-20 l-62 92v21z" />
<glyph unicode="*" d="M184 1044v103l21 20h205l-144 144v20l82 82h21l143 -143v205l20 20h103l20 -20v-308h308l20 -20v-103l-20 -20h-205l143 -143v-21l-82 -82h-20l-144 144v-205l-20 -21h-103l-20 21v307h-307z" />
<glyph unicode="+" d="M102 532v123l21 21h379v389l20 20h123l21 -20v-389h378l21 -21v-123l-21 -20h-378v-389l-21 -21h-123l-20 21v389h-379z" />
<glyph unicode="," d="M287 -184l245 563l21 10l205 -92v-21l-205 -481l-21 -20h-245v41z" />
<glyph unicode="-" d="M287 471v205l20 20h553l21 -20v-205l-21 -20h-553z" />
<glyph unicode="." d="M430 20v267l21 20h266l20 -20v-267l-20 -20h-266z" />
<glyph unicode="/" d="M41 -41l932 1577l20 20h133v-40l-931 -1577l-21 -21h-133v41z" />
<glyph unicode="0" d="M123 748q0 256 10 358q21 207 125 308.5t326 101.5t325.5 -101.5t124.5 -308.5q10 -102 10 -358q0 -257 -10 -359q-21 -208 -124 -308.5t-326 -100.5t-326.5 100.5t-124.5 308.5q-10 102 -10 359zM324 748q0 -205 10 -359q8 -117 64.5 -167t185.5 -50t185.5 50t64.5 167 q10 154 10 359q0 204 -10 358q-8 117 -64.5 167t-185.5 50t-185.5 -50t-64.5 -167q-10 -154 -10 -358z" />
<glyph unicode="1" d="M123 20v164l20 21h349v1003l-144 -225l-20 -20h-205v41l348 491h205l20 -20v-1270h328l20 -21v-164l-20 -20h-881z" />
<glyph unicode="2" d="M123 20v82q0 66 28 131.5t70.5 118.5t107 114t124 108t136 111t128.5 114q64 60 98.5 121t34.5 145q0 118 -75 186t-181 68q-105 0 -175.5 -68t-70.5 -186v-41l-20 -20h-164l-21 20v41q0 198 128.5 324.5t322.5 126.5q92 0 175.5 -32t147 -89.5t101 -143t37.5 -186.5 q0 -211 -195 -389q-66 -60 -148 -126.5t-136.5 -109t-104.5 -86.5t-74.5 -80.5t-25.5 -68.5h655l18 -21v-164l-18 -20h-883z" />
<glyph unicode="3" d="M102 451l21 20h164l18 -20q0 -117 79 -197t200 -80q120 0 198 84.5t78 202.5q0 134 -91 215.5t-226 81.5h-154l-20 20v164l391 348h-617l-20 21v164l20 20h881l20 -20v-185l-409 -352q192 -12 311 -146t119 -331q0 -89 -34 -175t-94.5 -154t-152.5 -110t-200 -42 q-139 0 -251 66.5t-171.5 174t-59.5 230.5z" />
<glyph unicode="4" d="M123 512v178l268 785l19 20h184v-41l-256 -762h338v475l20 21h164l21 -21v-475h143l20 -20v-160l-18 -20h-145v-472l-21 -20h-164l-20 20v472h-533z" />
<glyph unicode="5" d="M82 492l20 20h164l21 -20q0 -132 84 -220t213 -88q131 0 214 85.5t83 222.5q0 149 -87.5 228t-230.5 79h-317l-21 20l-82 185v20l174 451l21 20h666l20 -20v-164l-20 -21h-553l-113 -286h223q235 0 379.5 -138.5t144.5 -373.5q0 -216 -143.5 -364t-357.5 -148 q-140 0 -256 70t-181 187.5t-65 254.5z" />
<glyph unicode="6" d="M92 748q0 67 9 170.5t20 166.5q35 193 167.5 312t315.5 119q189 0 314.5 -114t125.5 -296l-20 -21h-164l-20 21q0 102 -68.5 158.5t-167.5 56.5q-224 0 -287 -236q-15 -56 -24 -140t-6 -146q133 143 327 143q108 0 198 -39t149 -105.5t91.5 -153.5t32.5 -183t-34 -183 t-94.5 -153.5t-152.5 -105.5t-200 -39q-189 0 -324.5 121.5t-166.5 308.5q-21 123 -21 338zM315 461q0 -117 83.5 -201t205.5 -84t199.5 80.5t77.5 204.5t-77.5 204t-199.5 80q-125 0 -207 -78t-82 -206z" />
<glyph unicode="7" d="M123 1311v164l20 20h861l20 -20l20 -164v-21l-573 -1270l-20 -20h-205v41l583 1249h-686z" />
<glyph unicode="8" d="M92 420q0 119 52.5 208.5t146.5 145.5q-85 52 -131.5 134.5t-46.5 187.5q0 174 131 297t340 123t340 -123t131 -297q0 -105 -47 -187.5t-131 -134.5q198 -120 198 -354q0 -188 -136 -314t-355 -126t-355.5 126t-136.5 314zM297 420q0 -113 80.5 -179.5t206.5 -66.5 t206 66.5t80 179.5q0 120 -79.5 188t-206.5 68q-121 0 -204 -69t-83 -187zM317 1096q0 -106 75 -169t192 -63q123 0 194.5 62.5t71.5 169.5q0 101 -72 163t-194 62t-194.5 -62t-72.5 -163z" />
<glyph unicode="9" d="M74 1034q0 96 34 183.5t94.5 153.5t152.5 105.5t200 39.5q190 0 325.5 -121t166.5 -310q20 -117 20 -337q0 -67 -9 -171t-20 -167q-35 -193 -167 -311.5t-316 -118.5q-189 0 -314.5 113.5t-125.5 295.5l20 21h164l20 -21q0 -102 68.5 -158.5t167.5 -56.5q224 0 287 236 q15 56 24 140t6 146q-133 -143 -327 -143q-108 0 -198 39t-149 105.5t-91.5 153.5t-32.5 183zM279 1034q0 -124 77 -204t199 -80q125 0 206 78t81 206q0 117 -83 201t-204 84q-122 0 -199 -80.5t-77 -204.5z" />
<glyph unicode=":" d="M430 61v267l21 20h266l20 -20v-267l-20 -20h-266zM430 676v266l21 21h266l20 -21v-266l-20 -21h-266z" />
<glyph unicode=";" d="M246 -184v-41h246l20 20l205 481v21l-205 92l-20 -10zM430 676v266l21 21h266l20 -21v-266l-20 -21h-266z" />
<glyph unicode="&#x3c;" d="M102 522v144l21 20l921 338l21 -20v-134l-21 -20l-747 -256l747 -256l21 -21v-133l-21 -20l-921 338z" />
<glyph unicode="=" d="M102 348v123l21 21h921l21 -21v-123l-21 -20h-921zM102 717v123l21 20h921l21 -20v-123l-21 -21h-921z" />
<glyph unicode="&#x3e;" d="M82 184v133l20 21l768 256l-768 256l-20 20v134l20 20l922 -338l20 -20v-144l-20 -20l-922 -338z" />
<glyph unicode="?" d="M143 1065q0 112 56 210.5t159 159t228 60.5q176 0 297 -117t121 -293q0 -64 -16 -119.5t-42.5 -94.5t-60 -76t-69 -64t-69 -57.5t-60.5 -56.5t-43.5 -62.5t-16.5 -74t18 -91.5l-18 -20h-166l-21 20q-19 74 -14 135t27 103.5t56 81.5t72.5 67t77 61t70 64.5t51 76.5 t19.5 97q0 99 -63 160t-163 61q-99 0 -162 -65.5t-63 -165.5v-41l-20 -20l-164 40zM410 20v205l20 21h246l20 -21v-205l-20 -20h-246z" />
<glyph unicode="@" d="M102 389q-11 353 0 686q7 197 125 308.5t305 111.5q82 0 155 -27.5t130.5 -78.5t91 -132.5t33.5 -181.5v-604l-20 -20h-103l-20 20l-21 61l-10 11l-10 -11q-35 -42 -86.5 -72t-108.5 -30q-117 0 -176 72t-59 205q0 122 79 204t220 113l151 35v26q0 119 -63 188.5 t-183 69.5q-130 0 -196 -68.5t-72 -189.5q-6 -127 -7 -340.5t5 -355.5q9 -206 99.5 -296.5t252.5 -90.5q81 0 142.5 19t109 62.5t72.5 120t25 185.5l20 21h119l20 -21q0 -116 -27.5 -209t-74.5 -153.5t-112.5 -101t-138 -58t-155.5 -17.5q-227 0 -365 134t-147 405zM492 707 q0 -121 102 -121q75 0 127.5 65.5t66.5 167.5v96l-143 -41q-71 -21 -112 -64t-41 -103z" />
<glyph unicode="A" d="M41 20l410 1455l20 20h225l21 -20l409 -1455l-10 -20h-194l-21 20l-88 349h-459l-88 -349l-20 -20h-195zM410 573h348l-174 656z" />
<glyph unicode="B" d="M143 20v1455l21 20h409q202 0 336.5 -114t134.5 -296q0 -101 -48.5 -184t-133.5 -135q95 -49 149 -137.5t54 -208.5q0 -189 -134 -304.5t-337 -115.5h-430zM358 205h246q98 0 172 61.5t74 163.5q0 114 -71.5 169.5t-174.5 55.5h-246v-450zM358 860h226q102 0 173.5 53.5 t71.5 161.5t-71.5 161.5t-173.5 53.5h-226v-430z" />
<glyph unicode="C" d="M123 748q0 127 22 242t66.5 213t108.5 170t152.5 112.5t193.5 40.5q141 0 248 -74.5t171 -202.5v-20l-143 -123h-20q-33 99 -97 157t-159 58q-89 0 -155 -47t-103.5 -129t-55.5 -181t-18 -216t18 -216t55.5 -181.5t103.5 -129.5t155 -47q95 0 159 58t97 157h20l143 -123 v-20q-64 -128 -171 -202.5t-248 -74.5h-4q-128 -1 -231 61q-105 62 -171.5 170t-101.5 248.5t-35 299.5z" />
<glyph unicode="D" d="M143 20v1455l21 20h184q102 0 204.5 -33t194 -98t163 -153.5t113.5 -208.5t42 -254q0 -140 -42 -262t-113 -209.5t-163.5 -151t-194.5 -94.5t-204 -31h-184zM356 205q222 0 358 151.5t136 391.5t-136 391t-358 151v-1085z" />
<glyph unicode="E" d="M143 20v1455l21 20h860l20 -20v-164l-20 -21h-666v-430h646l20 -20v-164l-20 -21h-646v-450h666l20 -21v-164l-20 -20h-860z" />
<glyph unicode="F" d="M143 20v1455l21 20h860l20 -20v-164l-20 -21h-666v-430h646l20 -20v-164l-20 -21h-646v-635l-20 -20h-174z" />
<glyph unicode="G" d="M82 748q0 127 22 242t66.5 213t108.5 170t152.5 112.5t193.5 40.5q141 0 248 -74.5t171 -202.5v-20l-143 -123h-20q-32 96 -99.5 155.5t-156.5 59.5t-155 -47t-103.5 -129t-55.5 -181t-18 -216q0 -574 311 -574q99 0 170 62.5t104 165t33 233.5h-440l-20 20v164l20 21 h430l21 -11l174 -174l10 -20q-2 -138 -35.5 -258t-95 -211t-157.5 -143.5t-214 -53.5h-5q-102 0 -187 40q-86 41 -146.5 112.5t-102.5 170.5t-61.5 213.5t-19.5 242.5z" />
<glyph unicode="H" d="M143 20v1455l21 20h174l20 -20v-615h451v615l20 20h175l20 -20v-1455l-18 -20h-177l-20 20v635h-451v-635l-20 -20h-174z" />
<glyph unicode="I" d="M143 20v164l21 21h311v1085h-209l-20 21v164l20 20h635l21 -20v-164l-21 -21h-209v-1085h312l20 -21v-164l-20 -20h-840z" />
<glyph unicode="J" d="M123 430l20 21h174l21 -21q0 -122 58.5 -194t176.5 -72q117 0 176.5 76.5t59.5 199.5v1035l20 20h175l20 -20v-1024q0 -218 -123 -355t-328 -137q-207 0 -328.5 130.5t-121.5 340.5z" />
<glyph unicode="K" d="M143 20v1455l21 20h176l18 -20v-594l461 594l21 20h235l10 -20l-573 -707l594 -748l-10 -20h-236l-20 20l-482 615v-615l-20 -20h-174z" />
<glyph unicode="L" d="M143 20v1455l21 20h174l20 -20v-1270h666l20 -21v-164l-20 -20h-860z" />
<glyph unicode="M" d="M123 20v1455l20 20h246l21 -20l174 -779l174 779l20 20h246l20 -20v-1455l-20 -20h-158l-18 20v1158l-152 -727l-20 -21h-184l-21 21l-152 727v-1158l-18 -20h-158z" />
<glyph unicode="N" d="M143 20v1455l21 20h235l21 -20l399 -1098v1098l21 20h164l20 -20v-1455l-20 -20h-236l-20 20l-400 1119v-1119l-22 -20h-162z" />
<glyph unicode="O" d="M82 748q0 129 17.5 242.5t56.5 212.5t96.5 170t142 112t189.5 41t189.5 -41t142 -112t96 -170t56 -212.5t17.5 -242.5q0 -163 -28.5 -299.5t-87 -245.5t-157 -171t-228.5 -63h-5q-103 0 -185 40q-84 41 -141.5 112t-96.5 171t-56.5 213.5t-17.5 242.5zM293 748 q0 -80 4.5 -146t16 -134t33 -119t52.5 -91.5t78 -62t107 -21.5t107 21.5t78 62t52 91.5t32.5 119t16 134t4.5 146t-4.5 146t-16 134t-32.5 118.5t-52 91.5t-78 62t-107 21t-107 -21t-78 -62t-52.5 -91.5t-33 -118.5t-16 -134t-4.5 -146z" />
<glyph unicode="P" d="M143 20v1455l21 20h461q201 0 330.5 -119.5t129.5 -310.5t-129.5 -310.5t-330.5 -119.5h-267v-615l-20 -20h-174zM358 840h277q99 0 167 58t68 167t-68 167t-167 58h-277v-450z" />
<glyph unicode="Q" d="M82 748q0 129 17.5 242.5t56.5 212.5t96.5 170t142 112t189.5 41t189.5 -41t142 -112t96 -170t56 -212.5t17.5 -242.5q0 -350 -122 -558l184 -190v-41h-205l-20 10l-84 80q-107 -77 -254 -80h-5q-102 0 -185 40q-84 41 -141.5 112t-96.5 171t-56.5 213.5t-17.5 242.5z M291 748q0 -80 5 -146.5t16.5 -134t33 -118.5t53 -91.5t78.5 -62t107 -21.5t106 21l-178 174v20l123 123h20l164 -172q62 140 62 408q0 96 -7 174.5t-27 155t-52 128t-86 83.5t-125 32q-60 0 -107 -21.5t-78.5 -62t-53 -91t-33 -118.5t-16.5 -134t-5 -146z" />
<glyph unicode="R" d="M143 20v1455l21 20h450q125 0 228.5 -48.5t168 -145.5t64.5 -226q0 -119 -64 -212.5t-163 -142t-215 -52.5l473 -627v-41h-225l-21 20l-471 646h-31v-646l-20 -20h-174zM358 860h267q98 0 166.5 56.5t68.5 158.5t-68.5 158.5t-166.5 56.5h-267v-430z" />
<glyph unicode="S" d="M92 410l10 20l185 62l20 -21v-9q1 -125 81 -200q84 -78 196 -78q127 0 196.5 61.5t69.5 164.5q0 173 -215 227q-65 16 -164 47q-159 51 -253.5 159.5t-94.5 282.5q0 169 128.5 284.5t319.5 115.5q194 0 323.5 -118.5t129.5 -301.5l-20 -21h-175l-20 21q0 88 -66 151.5 t-170 63.5q-106 0 -170.5 -55t-64.5 -140q0 -94 48.5 -150t166.5 -91l164 -47q158 -43 253 -148.5t95 -279.5q0 -82 -31.5 -160t-89.5 -141t-152 -101.5t-208 -38.5q-102 0 -193.5 37t-156 97.5t-103 141t-39.5 165.5z" />
<glyph unicode="T" d="M123 1311v164l20 20h881l20 -20v-164l-20 -21h-332v-1270l-20 -20h-176l-21 20v1270h-332z" />
<glyph unicode="U" d="M102 451v1024l21 20h174l20 -20v-1035q0 -126 58 -201t188 -75q126 0 196 78t70 198v1035l21 20h174l20 -20v-1455l-20 -20h-143l-21 20l-10 62l-10 10l-11 -10q-46 -54 -129 -88.5t-168 -34.5q-209 0 -319.5 134.5t-110.5 357.5z" />
<glyph unicode="V" d="M102 1475l11 20h184l20 -20l267 -1119l266 1119l20 20h185l10 -20l-358 -1455l-21 -20h-205l-20 20z" />
<glyph unicode="W" d="M102 1475l21 20h162l20 -20l43 -1000l123 631l21 20h184l20 -20l121 -631l45 1000l21 20h161l21 -20l-102 -1455l-21 -20h-164l-20 20l-174 840l-174 -840l-21 -20h-164l-20 20z" />
<glyph unicode="X" d="M102 20l365 748l-344 707l10 20h201l20 -20l230 -471l229 471l21 20h200l10 -20l-346 -707l367 -748l-10 -20h-201l-20 20l-250 510l-250 -510l-21 -20h-200z" />
<glyph unicode="Y" d="M102 1475l11 20h204l21 -20l246 -594l245 594l21 20h205l10 -20l-373 -840v-615l-20 -20h-176l-21 20v615z" />
<glyph unicode="Z" d="M143 20v164l11 31l651 1075h-621l-20 21v164l20 20h840l20 -20v-164l-10 -31l-651 -1075h641l20 -21v-164l-20 -20h-860z" />
<glyph unicode="[" d="M348 -225v1945l21 21h553l20 -21v-102l-20 -21h-430v-1699h430l20 -21v-102l-20 -21h-553z" />
<glyph unicode="\" d="M41 1516v40h133l21 -20l931 -1577v-41h-133l-20 21z" />
<glyph unicode="]" d="M225 -123l21 21h430v1699h-430l-21 21v102l21 21h553l20 -21v-1945l-20 -21h-553l-21 21v102z" />
<glyph unicode="^" d="M143 532l338 943l21 20h143l21 -20l338 -943l-21 -20h-133l-21 20l-256 764l-256 -764l-20 -20h-133z" />
<glyph unicode="_" d="M102 -20l21 20h921l21 -20v-103l-21 -20h-921l-21 20v103z" />
<glyph unicode="`" d="M360 1341v21l154 113h21l245 -379l-10 -21h-195l-20 21z" />
<glyph unicode="a" d="M123 287q0 134 94.5 208.5t263.5 88.5l326 30v21q0 87 -67 130.5t-167 43.5q-90 0 -153.5 -39t-71.5 -94l-20 -21h-164l-21 21q16 128 134 217.5t296 89.5q80 0 154.5 -22.5t137.5 -65.5t101 -116t38 -165v-594l-21 -20h-143l-21 20l-10 72l-10 10l-11 -10 q-58 -49 -139 -80.5t-168 -31.5q-101 0 -180.5 33t-128.5 104t-49 170zM319 287q0 -60 48.5 -94.5t124.5 -34.5q121 0 217 64t110 167v64q-17 -4 -317 -33q-93 -9 -138 -41t-45 -92z" />
<glyph unicode="b" d="M123 20v1516l20 20h164l21 -20v-655l10 -11l10 11q47 47 114.5 74.5t141.5 27.5q203 0 342 -141.5t139 -360.5t-139 -360t-342 -141q-75 0 -142 27.5t-114 74.5l-10 10l-10 -10l-21 -62l-20 -20h-144zM307 481q0 -134 79.5 -225.5t207.5 -91.5q140 0 213.5 89.5 t73.5 227.5t-73.5 228t-213.5 90q-128 0 -207.5 -92t-79.5 -226z" />
<glyph unicode="c" d="M143 481q0 144 69.5 260.5t181.5 179t241 62.5q142 0 255 -67.5t175 -178.5v-20l-143 -82h-21q-27 66 -97.5 115t-158.5 49q-141 0 -221 -91t-80 -227t80 -226.5t221 -90.5q88 0 159.5 49t96.5 115h21l143 -82v-21q-62 -111 -175 -178t-255 -67q-129 0 -241 62.5 t-181.5 178.5t-69.5 260z" />
<glyph unicode="d" d="M82 481q0 219 139 360.5t342 141.5q74 0 141.5 -27.5t114.5 -74.5l10 -11l11 11v655l20 20h164l20 -20v-1516l-20 -20h-143l-21 20l-20 62l-11 10l-10 -10q-47 -47 -114 -74.5t-142 -27.5q-203 0 -342 141t-139 360zM287 481q0 -138 73 -227.5t213 -89.5 q128 0 207.5 91.5t79.5 225.5t-79.5 226t-207.5 92q-140 0 -213 -89.5t-73 -228.5z" />
<glyph unicode="e" d="M123 481q0 219 139 360.5t342 141.5q92 0 177 -35.5t149 -97.5q65 -62 102 -156q33 -84 33 -181v-21l-21 -62h-716q0 -111 79.5 -188.5t206.5 -77.5q88 0 154.5 44t91.5 109h21l141 -92v-20q-69 -105 -172 -165t-236 -60q-96 0 -185 37t-156.5 101.5t-108.5 159.5 t-41 203zM338 610h512q-8 80 -77.5 134.5t-168.5 54.5q-109 0 -175 -51.5t-91 -137.5z" />
<glyph unicode="f" d="M164 799v143l20 21h287v286q0 142 78.5 224.5t228.5 82.5l144 -20l20 -20v-144l-20 -20l-154 20q-45 0 -68.5 -27.5t-23.5 -74.5v-307h307l21 -21v-143l-21 -21h-307v-758l-21 -20h-163l-21 20v758h-287z" />
<glyph unicode="g" d="M143 -61q0 97 50.5 174t136.5 123q-87 54 -137 138.5t-50 188.5q0 178 125 299t316 121q143 0 245 -102l11 -11l10 11l10 61l21 21h123l20 -21v-379q0 -104 -50 -188.5t-138 -138.5q87 -48 137.5 -123.5t50.5 -173.5q0 -86 -37 -157t-99 -116.5t-140.5 -70.5t-163.5 -25 q-115 0 -214 42t-163 128t-64 199zM338 -61q0 -89 71 -140t175 -51t174.5 51t70.5 140t-70.5 141.5t-174.5 52.5t-175 -52.5t-71 -141.5zM338 563q0 -100 69.5 -167.5t176.5 -67.5q106 0 175.5 67.5t69.5 167.5q0 101 -69.5 168.5t-175.5 67.5t-176 -68t-70 -168z" />
<glyph unicode="h" d="M143 20v1516l21 20h164l20 -20v-655l10 -11l11 11q38 45 106.5 73.5t138.5 28.5q190 0 300 -104t110 -306v-553l-20 -20h-164l-21 20v545q-3 116 -61 175t-164 59q-98 0 -170.5 -64t-75.5 -153v-562l-20 -20h-164z" />
<glyph unicode="i" d="M164 20l20 -20h799l21 20v144l-21 20h-287v758l-20 21h-410l-20 -21v-143l20 -21h226v-594h-308l-20 -20v-144zM471 1147v246l21 20h225l20 -20v-246l-20 -21h-225z" />
<glyph unicode="j" d="M164 -102v-20q0 -138 93 -230q100 -99 255 -99q164 0 256 100t92 259v1034l-20 21h-471l-21 -21v-143l21 -21h286v-880q0 -77 -37.5 -120.5t-105.5 -43.5q-71 0 -109 44q-34 40 -34 106v14l-21 20h-164zM532 1147v246l21 20h225l21 -20v-246l-21 -21h-225z" />
<glyph unicode="k" d="M164 20v1516l20 20h164l21 -20v-963l409 379l21 11h235l10 -21l-485 -448l506 -474l-10 -20h-236l-20 10l-430 400v-390l-21 -20h-164z" />
<glyph unicode="l" d="M164 20v144l20 20h308l-21 185v1003h-225l-21 21v143l21 20h409l21 -20v-1167l20 -185h267l20 -20v-144l-20 -20h-779z" />
<glyph unicode="m" d="M123 20v922l20 21h133l21 -21l10 -61l10 -11l11 11q52 102 153 102q120 0 154 -123l10 -10l10 10q63 123 185 123q101 0 152.5 -68.5t51.5 -218.5v-676l-20 -20h-147l-21 20v666q0 62 -24 87.5t-58 25.5q-43 0 -70.5 -39t-27.5 -125v-615l-21 -20h-143l-20 20v666 q0 113 -76 113q-39 0 -70 -36t-35 -108v-635l-18 -20h-150z" />
<glyph unicode="n" d="M143 20v922l21 21h153l21 -21l10 -61l10 -11l11 11q38 45 106.5 73.5t138.5 28.5q190 0 300 -104t110 -306v-553l-20 -20h-164l-21 20v533q0 122 -58 184t-167 62q-98 0 -170.5 -64t-75.5 -153v-562l-20 -20h-164z" />
<glyph unicode="o" d="M82 481q0 144 70 260.5t184.5 179t247.5 62.5t247 -62.5t184 -179t70 -260.5t-70 -260t-184 -178.5t-247 -62.5t-247.5 62.5t-184.5 178.5t-70 260zM285 481q0 -137 79 -227t220 -90t219 90t78 227t-78 227.5t-219 90.5t-220 -90.5t-79 -227.5z" />
<glyph unicode="p" d="M123 -410v1352l20 21h144l20 -21l21 -61l10 -11l10 11q47 47 114 74.5t142 27.5q203 0 342 -141.5t139 -360.5t-139 -360t-342 -141q-74 0 -141.5 27.5t-114.5 74.5l-10 10l-10 -10v-492l-21 -20h-164zM307 481q0 -134 79.5 -225.5t207.5 -91.5q140 0 213.5 89.5 t73.5 227.5t-73.5 228t-213.5 90q-128 0 -207.5 -92t-79.5 -226z" />
<glyph unicode="q" d="M82 481q0 219 139 360.5t342 141.5q75 0 142 -27.5t114 -74.5l10 -11l11 11l20 61l21 21h143l20 -21v-1352l-20 -20h-164l-20 20v492l-11 10l-10 -10q-47 -47 -114.5 -74.5t-141.5 -27.5q-203 0 -342 141t-139 360zM287 481q0 -138 73 -227.5t213 -89.5q128 0 207.5 91.5 t79.5 225.5t-79.5 226t-207.5 92q-140 0 -213 -89.5t-73 -228.5z" />
<glyph unicode="r" d="M164 20v922l20 21h144l20 -21l21 -61l10 -11l10 11q37 45 105 73.5t131 28.5q182 0 280.5 -99t98.5 -270l-21 -20l-164 -21l-20 21q0 104 -54.5 154.5t-150.5 50.5q-90 0 -156 -63.5t-69 -153.5v-562l-21 -20h-164z" />
<glyph unicode="s" d="M164 266v21l164 61l20 -20q7 -74 83.5 -121t172.5 -47q93 0 149 31t56 85q0 86 -143 105q-172 20 -185 22q-131 21 -214 92.5t-83 182.5q0 136 111.5 220.5t288.5 84.5q154 0 266 -78.5t143 -208.5l-20 -20h-164l-21 20q-15 47 -72 78t-132 31q-95 0 -150 -29t-55 -86 q0 -87 143 -106l185 -21q133 -16 215 -84.5t82 -191.5q0 -130 -115.5 -218.5t-284.5 -88.5q-152 0 -281 80t-159 206z" />
<glyph unicode="t" d="M164 799v143l20 21h267v327l163 205h41v-532h328l21 -21v-143l-21 -21h-328v-491q0 -46 28.5 -74.5t74.5 -28.5l123 21l20 -21v-143l-20 -21l-113 -20q-151 0 -234 83t-83 224v471h-267z" />
<glyph unicode="u" d="M143 389v553l21 21h164l20 -21v-532q0 -122 58 -184t167 -62q97 0 169.5 63t76.5 152v563l21 21h164l20 -21v-922l-20 -20h-144l-20 20l-21 62l-10 10l-10 -10q-38 -45 -107 -73.5t-139 -28.5q-190 0 -300 103.5t-110 305.5z" />
<glyph unicode="v" d="M102 942l11 21h184l20 -21l267 -717l266 717l20 21h185l10 -21l-369 -922l-20 -20h-184l-21 20z" />
<glyph unicode="w" d="M102 942l21 21h141l23 -21l82 -645l112 440l21 21h164l20 -21l113 -440l82 645l22 21h141l21 -21l-133 -922l-19 -20h-165l-21 20l-143 512l-144 -512l-20 -20h-166l-18 20z" />
<glyph unicode="x" d="M143 20l328 461l-328 461l11 21h194l21 -21l215 -303l215 303l20 21h195l10 -21l-328 -461l328 -461l-10 -20h-195l-20 20l-215 302l-215 -302l-21 -20h-194z" />
<glyph unicode="y" d="M113 942l10 21h184l21 -21l258 -606l254 606l20 21h184l11 -21l-584 -1352l-20 -20h-164l-21 20l217 510z" />
<glyph unicode="z" d="M164 20v154l10 21l584 583h-553l-21 21v143l21 21h778l21 -21v-154l-11 -20l-594 -584h584l21 -20v-144l-21 -20h-799z" />
<glyph unicode="{" d="M205 717v102l20 21q126 -15 199.5 44t67.5 181l-21 369q-6 122 68 194t198 72l246 -21l21 -20v-82l-21 -21h-246q-62 0 -94 -30.5t-29 -91.5l21 -390q0 -117 -63.5 -188.5t-161.5 -87.5q98 -16 161.5 -87.5t63.5 -188.5l-21 -390q-3 -61 29 -91.5t94 -30.5h246l21 -21 v-82l-21 -20l-246 -21q-124 0 -198 72t-68 194l21 369q6 121 -68 180.5t-199 44.5z" />
<glyph unicode="|" d="M512 -184v1740l20 21h103l20 -21v-1740l-20 -21h-103z" />
<glyph unicode="}" d="M164 -41l20 21h246q62 0 94 30.5t29 91.5l-21 390q0 117 64 188.5t162 87.5q-98 16 -162 87.5t-64 188.5l21 390q3 61 -29 91.5t-94 30.5h-246l-20 21v82l20 20l246 21q124 0 198 -72t68 -194l-20 -369q-6 -122 67 -181t199 -44l21 -21v-102l-21 -21 q-125 15 -198.5 -44.5t-67.5 -180.5l20 -369q6 -122 -68 -194t-198 -72l-246 21l-20 20v82z" />
<glyph unicode="~" d="M143 717l21 20h143l21 -20q-7 -43 17.5 -67.5t64.5 -24.5q41 0 86.5 19t81 42.5t87 42.5t103.5 19q127 0 198.5 -72t57.5 -205l-20 -20h-144l-20 20q7 43 -17.5 67.5t-64.5 24.5q-34 0 -67 -12.5t-63 -31t-62 -36.5t-75.5 -30.5t-91.5 -12.5q-127 0 -198.5 72t-57.5 205z " />
<glyph unicode="&#xa0;" />
<glyph unicode="&#xa1;" d="M440 1270v205l21 20h246l20 -20v-205l-20 -21h-246zM461 20l20 512l72 574l20 20h21l20 -20l72 -574l21 -512l-21 -20h-205z" />
<glyph unicode="&#xa2;" d="M143 778q0 189 107.5 330t271.5 174v254l21 20h143l21 -20v-254q110 -24 194.5 -104t132.5 -195v-20h-184l-21 20q-48 81 -122 107v-627q33 9 58 29.5t36 36t28 44.5l21 21h184v-21q-50 -120 -132.5 -200t-194.5 -101v-252l-21 -20h-143l-21 20v252q-173 29 -276 169.5 t-103 336.5zM348 778q0 -117 42.5 -201t131.5 -112v625q-89 -26 -131.5 -110.5t-42.5 -201.5z" />
<glyph unicode="&#xa3;" d="M143 20v164l21 19h133q112 3 189 69.5t77 157.5q0 67 -43 139l-203 -180h-20l-92 103v20l205 182l-21 19q-105 86 -155 173t-50 210q0 74 28.5 145t79.5 127.5t130 91.5t172 35q119 0 212.5 -55t143.5 -142.5t54 -191.5l-21 -21h-164l-20 21q-8 85 -61.5 136.5 t-143.5 51.5q-95 0 -150 -58.5t-55 -139.5q0 -64 31 -129t92 -117l37 -33l188 166h21l92 -102v-21l-184 -164q82 -105 82 -215q0 -162 -144 -278h400l20 -19v-164l-20 -20h-840z" />
<glyph unicode="&#xa4;" d="M123 225v21l90 92q-80 116 -80 256t80 256l-90 92v21l92 92h21l92 -90q116 79 256 79q137 0 256 -79l92 90h20l92 -92v-21l-90 -92q80 -121 80 -256t-80 -256l90 -92v-21l-92 -92h-20l-92 90q-121 -80 -256 -80q-138 0 -256 80l-92 -90h-21zM276 594q0 -127 90 -217 t218 -90t217.5 89.5t89.5 217.5t-89.5 217.5t-217.5 89.5t-218 -90t-90 -217z" />
<glyph unicode="&#xa5;" d="M113 840l10 20l203 78l-203 537l10 20h184l23 -20l244 -697l235 697l21 20h194l10 -20l-204 -537l204 -78l11 -20l-51 -144l-21 -8l-209 76l-88 -232h277l20 -20v-143l-20 -21h-277v-348h-205v348h-276l-21 21v143l21 20h276l-88 232l-209 -76l-20 8z" />
<glyph unicode="&#xa6;" d="M512 -184v573l20 21h103l20 -21v-573l-20 -21h-103zM512 983v573l20 21h103l20 -21v-573l-20 -20h-103z" />
<glyph unicode="&#xa7;" d="M133 592q0 79 55 147t150 103q-154 112 -154 295q0 155 111.5 256.5t288.5 101.5q176 0 287.5 -109.5t111.5 -279.5l-20 -21h-164l-21 21q0 91 -56 144t-149 53q-83 0 -133.5 -47.5t-50.5 -118.5q0 -117 123 -176q112 -53 276 -115q121 -46 183.5 -119t62.5 -184 q0 -79 -56 -148t-151 -102q156 -114 156 -295q0 -155 -111.5 -255.5t-287.5 -100.5q-178 0 -289 108.5t-111 278.5l21 22h164l20 -22q0 -91 56 -144t149 -53q83 0 133.5 47.5t50.5 118.5q0 55 -31.5 101t-91.5 75q-112 53 -276 115q-121 46 -183.5 119t-62.5 184zM328 623 q0 -107 123 -154q63 -25 215 -90q87 0 130.5 37.5t43.5 95.5q0 108 -123 154q-105 40 -215 90q-87 0 -130.5 -37.5t-43.5 -95.5z" />
<glyph unicode="&#xa8;" d="M276 1147v246l21 20h195l18 -20v-246l-18 -21h-195zM655 1147v246l21 20h194l21 -20v-246l-21 -21h-194z" />
<glyph unicode="&#xa9;" d="M61 553q-8 195 0 389q12 268 155.5 410.5t367.5 142.5t367 -142.5t155 -410.5q8 -195 0 -389q-12 -268 -155 -410.5t-367 -142.5t-367.5 142.5t-155.5 410.5zM178 561q6 -115 39 -201t88.5 -137t124.5 -75.5t154 -24.5q84 0 153.5 24.5t124.5 75.5t88 137t39 201 q10 186 0 373q-6 115 -39 201t-88 137t-124.5 75.5t-153.5 24.5q-85 0 -154 -24.5t-124.5 -75.5t-88.5 -137t-39 -201q-10 -186 0 -373zM256 748q0 205 97.5 322.5t260.5 117.5q96 0 172.5 -53t124.5 -142v-20l-92 -92h-20q-50 163 -185 163q-215 0 -215 -296 q0 -297 215 -297q135 0 185 163h20l92 -92v-20q-48 -89 -124.5 -142t-172.5 -53q-163 0 -260.5 118t-97.5 323z" />
<glyph unicode="&#xaa;" d="M246 965q0 198 270 227l240 27v20q0 60 -50.5 97.5t-121.5 37.5q-66 0 -112.5 -30t-59.5 -74l-21 -21h-115l-20 21q12 97 106 169t222 72q60 0 117 -18t104.5 -52t76.5 -89t29 -123v-461l-20 -20h-98l-15 18l-20 53l-10 10l-11 -10q-36 -36 -95.5 -62t-129.5 -26 q-118 0 -192 60.5t-74 173.5zM397 965q0 -45 38 -71t87 -26q90 0 161 48.5t81 127.5v52l-225 -29q-72 -9 -107 -33t-35 -69z" />
<glyph unicode="&#xab;" d="M236 594v20l358 451h20v-205l-10 -20l-186 -236l186 -235l10 -21v-205h-20zM563 594v20l359 451h20v-205l-10 -20l-187 -236l187 -235l10 -21v-205h-20z" />
<glyph unicode="&#xac;" d="M102 819v123l21 21h921l21 -21v-594l-21 -20h-122l-21 20v451h-778z" />
<glyph unicode="&#xad;" d="M287 471v205l20 20h553l21 -20v-205l-21 -20h-553z" />
<glyph unicode="&#xae;" d="M61 553q-8 195 0 389q12 268 155.5 410.5t367.5 142.5t367 -142.5t155 -410.5q8 -195 0 -389q-12 -268 -155 -410.5t-367 -142.5t-367.5 142.5t-155.5 410.5zM178 561q6 -115 39 -201t88.5 -137t124.5 -75.5t154 -24.5q84 0 153.5 24.5t124.5 75.5t88 137t39 201 q10 186 0 373q-6 115 -39 201t-88 137t-124.5 75.5t-153.5 24.5q-85 0 -154 -24.5t-124.5 -75.5t-88.5 -137t-39 -201q-10 -186 0 -373zM328 369v778l20 20h236q130 0 215.5 -68.5t85.5 -197.5q0 -98 -61.5 -162t-157.5 -84l235 -266l-20 -41h-123l-21 21l-243 280h-23v-280 l-20 -21h-103zM471 786h123q65 0 104 29.5t39 85.5q0 55 -39.5 85t-103.5 30h-123v-230z" />
<glyph unicode="&#xaf;" d="M287 1157v143l20 21h553l21 -21v-143l-21 -20h-553z" />
<glyph unicode="&#xb0;" d="M276 1188q0 130 89.5 218.5t218.5 88.5t218 -88.5t89 -218.5t-89 -218.5t-218 -88.5t-218.5 88.5t-89.5 218.5zM420 1188q0 -69 47.5 -116.5t116.5 -47.5t116.5 47.5t47.5 116.5t-47.5 116.5t-116.5 47.5t-116.5 -47.5t-47.5 -116.5z" />
<glyph unicode="&#xb1;" d="M102 20v123l21 21h921l21 -21v-123l-21 -20h-921zM102 819v123l21 21h379v389l20 20h123l21 -20v-389h378l21 -21v-123l-21 -20h-378v-389l-21 -21h-123l-20 21v389h-379z" />
<glyph unicode="&#xb2;" d="M348 1137v61q0 41 20 77.5t55 67t71 55t80.5 54.5t70.5 53q28 25 40.5 38t27 40t14.5 55q0 46 -28 74.5t-74 28.5q-47 0 -81 -29t-34 -74v-30l-21 -21h-102l-20 21v20q0 115 78.5 180.5t179.5 65.5q108 0 176.5 -65t68.5 -171q0 -108 -110 -204q-33 -29 -97 -67.5 t-102.5 -67t-38.5 -50.5h338l21 -20v-92l-21 -21h-491z" />
<glyph unicode="&#xb3;" d="M328 1352l20 20h103l20 -20q0 -47 34.5 -80t86.5 -33q54 0 89.5 33t35.5 80q0 55 -36.5 89t-98.5 34h-111l-20 20v92l194 144h-297l-20 20v92l20 21h481l21 -21v-112l-205 -132q95 -11 155 -75.5t60 -161.5q0 -103 -77 -179.5t-191 -76.5q-116 0 -190 74.5t-74 171.5z " />
<glyph unicode="&#xb4;" d="M401 1096l246 379h21l153 -113v-21l-194 -245l-21 -21h-194z" />
<glyph unicode="&#xb5;" d="M143 -410v1352l21 21h164l20 -21v-532q0 -122 58 -184t167 -62q97 0 169.5 63t76.5 152v563l21 21h164l20 -21v-922l-20 -20h-154l-21 20l-10 62l-10 10l-10 -10q-38 -45 -107 -73.5t-139 -28.5q-128 0 -205 59v-449l-20 -20h-164z" />
<glyph unicode="&#xb6;" d="M123 1188q0 138 84.5 222.5t222.5 84.5h123l20 -20v-1782l-20 -21h-102l-21 21v1188q-138 0 -222.5 84.5t-84.5 222.5zM676 -307v1782l20 20h308l20 -20v-103l-20 -20h-185v-1659l-20 -21h-103z" />
<glyph unicode="&#xb7;" d="M430 471v266l21 21h266l20 -21v-266l-20 -20h-266z" />
<glyph unicode="&#xb8;" horiz-adv-x="1165" d="M358 -356l72 116h21q45 -36 102 -36q31 0 51.5 14t20.5 37q0 51 -76 51h-27l-20 20v185l20 20h111l20 -20v-82q55 -9 100.5 -55t45.5 -119q0 -96 -70 -155.5t-184 -59.5q-105 0 -187 63v21z" />
<glyph unicode="&#xb9;" d="M307 1137v92l21 20h204v451l-71 -113l-21 -10h-133v20l170 246l25 21h153l21 -21v-594h184l21 -20v-92l-21 -21h-532z" />
<glyph unicode="&#xba;" d="M195 1120q0 115 57 206.5t145 138t187 46.5t187 -46.5t145 -138t57 -206.5q0 -172 -117.5 -280.5t-271.5 -108.5t-271.5 108.5t-117.5 280.5zM348 1120q0 -105 63.5 -177.5t172.5 -72.5t172 72.5t63 177.5t-63 178.5t-172 73.5t-172.5 -73.5t-63.5 -178.5z" />
<glyph unicode="&#xbb;" d="M225 143v205l11 21l186 235l-186 236l-11 20v205h21l358 -451v-20l-358 -451h-21zM553 143v205l10 21l187 235l-187 236l-10 20v205h20l359 -451v-20l-359 -451h-20z" />
<glyph unicode="&#xbc;" d="M41 768v92l20 21h164v440l-30 -51l-21 -21h-133v21l143 205l21 20h143l21 -20v-594h123l20 -21v-61l-43 -51h-408zM205 369v20l655 717l31 20h113v-20l-656 -717l-31 -20h-112zM492 215v113l10 20l297 389l20 11h133v-31l-297 -389h205v184l21 20h102l21 -20v-184h81 l21 -21v-92l-21 -20h-81v-175l-21 -20h-102l-21 20v175h-348z" />
<glyph unicode="&#xbd;" d="M41 768v92l20 21h164v440l-30 -51l-21 -21h-133v21l143 205l21 20h143l21 -20v-594h123l20 -21v-61l-43 -51h-408zM205 369v20l655 717l31 20h113v-20l-656 -717l-31 -20h-112zM625 20v62q2 51 31.5 96t64.5 73.5t88.5 69t81.5 68.5q25 25 38.5 40t28.5 42t15 51 q0 46 -28.5 74.5t-74.5 28.5t-74 -28.5t-28 -74.5v-30l-20 -21h-103l-20 21v20q0 116 72.5 181t172.5 65q108 0 177 -65t69 -171q0 -104 -110 -205q-32 -30 -88 -68.5t-87.5 -66t-31.5 -49.5h307l20 -20v-93l-20 -20h-461z" />
<glyph unicode="&#xbe;" d="M41 983l20 21h103l20 -21q0 -47 34.5 -80t86.5 -33q54 0 89.5 33t35.5 80q0 55 -36.5 89t-98.5 34h-111l-20 20v93l194 143h-256l-20 20v93l20 20h441l20 -20v-113l-205 -131q95 -11 155 -76t60 -162q0 -103 -77 -179.5t-191 -76.5q-117 0 -190.5 74.5t-73.5 171.5z M205 369v20l655 717l31 20h113v-20l-656 -717l-31 -20h-112zM492 215v113l10 20l297 389l20 11h133v-31l-297 -389h205v184l21 20h102l21 -20v-184h81l21 -21v-92l-21 -20h-81v-175l-21 -20h-102l-21 20v175h-348z" />
<glyph unicode="&#xbf;" d="M143 430l21 21l164 41l20 -21v-41q0 -100 63 -165.5t162 -65.5q100 0 163 61t63 160q0 52 -19.5 97t-51 76.5t-70 64.5t-77 61t-72.5 67t-56 81.5t-27 103.5t14 135l21 20h166l18 -20q-18 -54 -18 -91.5t16.5 -74t43.5 -62.5t60.5 -56.5t69 -57.5t69 -64t60 -76 t42.5 -94.5t16 -119.5q0 -176 -121 -293t-297 -117q-125 0 -228 60.5t-159 159t-56 210.5zM410 1270v205l20 20h246l20 -20v-205l-20 -21h-246z" />
<glyph unicode="&#xc0;" d="M41 20l410 1455l20 20h225l21 -20l409 -1455l-10 -20h-194l-21 20l-88 349h-459l-88 -349l-20 -20h-195zM287 1802v21l133 123h20l267 -328l-11 -21h-217l-24 21zM410 573h348l-174 656z" />
<glyph unicode="&#xc1;" d="M41 20l10 -20h195l20 20l88 349h459l88 -349l21 -20h194l10 20l-409 1455l-21 20h-225l-20 -20zM410 573l174 656l174 -656h-348zM461 1618l266 328h21l133 -123v-21l-168 -184l-27 -21h-215z" />
<glyph unicode="&#xc2;" d="M41 20l10 -20h195l20 20l88 349h459l88 -349l21 -20h194l10 20l-409 1455l-21 20h-225l-20 -20zM276 1710v21l205 194l21 10h164l20 -10l205 -194v-21l-103 -113h-20l-184 166l-185 -166h-20zM410 573l174 656l174 -656h-348z" />
<glyph unicode="&#xc3;" d="M41 20l10 -20h195l20 20l88 349h459l88 -349l21 -20h194l10 20l-409 1455l-21 20h-225l-20 -20zM246 1843l20 21h140l20 -21q-3 -57 47 -57q17 0 55.5 20t88.5 40t94 20q103 0 161 -69t50 -179l-21 -21h-139l-21 21q3 55 -47 55q-17 0 -55.5 -20t-88.5 -40t-95 -20 q-102 0 -159.5 68.5t-49.5 181.5zM410 573l174 656l174 -656h-348z" />
<glyph unicode="&#xc4;" d="M41 20l10 -20h195l20 20l88 349h459l88 -349l21 -20h194l10 20l-409 1455l-21 20h-225l-20 -20zM266 1638v246l21 21h205l18 -21v-246l-18 -20h-205zM410 573l174 656l174 -656h-348zM655 1638v246l21 21h205l20 -21v-246l-20 -20h-205z" />
<glyph unicode="&#xc5;" d="M41 20l410 1455l20 20h225l21 -20l409 -1455l-10 -20h-194l-21 20l-88 349h-459l-88 -349l-20 -20h-195zM358 1772q0 97 65.5 159t160.5 62t160 -62t65 -159t-65 -159.5t-160 -62.5t-160.5 62.5t-65.5 159.5zM410 573h348l-174 656zM498 1772q0 -38 24 -62t62 -24 q37 0 61.5 24t24.5 62q0 37 -24.5 61.5t-61.5 24.5q-38 0 -62 -24.5t-24 -61.5z" />
<glyph unicode="&#xc6;" d="M41 20l338 1455l20 20h707l20 -20v-164l-20 -21h-451l88 -430h342l21 -20v-164l-21 -21h-299l93 -450h227l20 -21v-164l-20 -20h-389l-10 20l-64 328h-313l-74 -328l-20 -20h-185zM375 553h229l-104 553z" />
<glyph unicode="&#xc7;" d="M123 748q0 127 22 242t66.5 213t108.5 170t152.5 112.5t193.5 40.5q141 0 248 -74.5t171 -202.5v-20l-143 -123h-20q-33 99 -97 157t-159 58q-89 0 -155 -47t-103.5 -129t-55.5 -181t-18 -216t18 -216t55.5 -181.5t103.5 -129.5t155 -47q95 0 159 58t97 157h20l143 -123 v-20q-61 -121 -160.5 -194.5t-228.5 -80.5v-22q55 -9 100.5 -55t45.5 -119q0 -96 -70 -155.5t-184 -59.5q-105 0 -187 63v21l72 116h21q45 -36 102 -36q31 0 51.5 14t20.5 37q0 51 -76 51h-27l-20 20v138q-135 34 -232 146.5t-143.5 270.5t-46.5 347z" />
<glyph unicode="&#xc8;" d="M143 20v1455l21 20h860l20 -20v-164l-20 -21h-666v-430h646l20 -20v-164l-20 -21h-646v-450h666l20 -21v-164l-20 -20h-860zM319 1802v21l134 123h20l266 -328l-10 -21h-217l-25 21z" />
<glyph unicode="&#xc9;" d="M143 20l21 -20h860l20 20v164l-20 21h-666v450h646l20 21v164l-20 20h-646v430h666l20 21v164l-20 20h-860l-21 -20v-1455zM451 1618l266 328h20l133 -123v-21l-168 -184l-26 -21h-215z" />
<glyph unicode="&#xca;" d="M143 20l21 -20h860l20 20v164l-20 21h-666v450h646l20 21v164l-20 20h-646v430h666l20 21v164l-20 20h-860l-21 -20v-1455zM293 1710v21l205 194l20 10h164l20 -10l205 -194v-21l-102 -113h-21l-184 166l-184 -166h-21z" />
<glyph unicode="&#xcb;" d="M143 20l21 -20h860l20 20v164l-20 21h-666v450h646l20 21v164l-20 20h-646v430h666l20 21v164l-20 20h-860l-21 -20v-1455zM281 1638v246l20 21h205l18 -21v-246l-18 -20h-205zM670 1638v246l20 21h205l20 -21v-246l-20 -20h-205z" />
<glyph unicode="&#xcc;" d="M143 20v164l21 21h311v1085h-209l-20 21v164l20 20h635l21 -20v-164l-21 -21h-209v-1085h312l20 -21v-164l-20 -20h-840zM283 1802v21l133 123h20l266 -328l-10 -21h-217l-24 21z" />
<glyph unicode="&#xcd;" d="M143 20l21 -20h840l20 20v164l-20 21h-312v1085h209l21 21v164l-21 20h-635l-20 -20v-164l20 -21h209v-1085h-311l-21 -21v-164zM465 1618l266 328h21l133 -123v-21l-168 -184l-27 -21h-215z" />
<glyph unicode="&#xce;" d="M143 20l21 -20h840l20 20v164l-20 21h-312v1085h209l21 21v164l-21 20h-635l-20 -20v-164l20 -21h209v-1085h-311l-21 -21v-164zM276 1710v21l205 194l21 10h164l20 -10l205 -194v-21l-103 -113h-20l-184 166l-185 -166h-20z" />
<glyph unicode="&#xcf;" d="M143 20l21 -20h840l20 20v164l-20 21h-312v1085h209l21 21v164l-21 20h-635l-20 -20v-164l20 -21h209v-1085h-311l-21 -21v-164zM266 1638v246l21 21h205l18 -21v-246l-18 -20h-205zM655 1638v246l21 21h205l20 -21v-246l-20 -20h-205z" />
<glyph unicode="&#xd0;" d="M41 676v143l20 21h103v635l20 20h185q102 0 202 -33t189 -98t157 -153.5t108 -208.5t40 -254q0 -140 -40 -262t-108 -209.5t-157 -151t-189 -94.5t-202 -31h-185l-20 20v635h-103zM377 205q220 0 346.5 150t126.5 393q0 242 -126.5 392t-346.5 150v-450h196l21 -21v-143 l-21 -21h-196v-450z" />
<glyph unicode="&#xd1;" d="M143 20l21 -20h162l22 20v1119l400 -1119l20 -20h236l20 20v1455l-20 20h-164l-21 -20v-1098l-399 1098l-21 20h-235l-21 -20v-1455zM246 1843l20 21h140l20 -21q-3 -57 47 -57q17 0 55.5 20t88.5 40t94 20q103 0 161 -69t50 -179l-21 -21h-139l-21 21q3 55 -47 55 q-17 0 -55.5 -20t-88.5 -40t-95 -20q-102 0 -159.5 68.5t-49.5 181.5z" />
<glyph unicode="&#xd2;" d="M82 748q0 129 17.5 242.5t56.5 212.5t96.5 170t142 112t189.5 41t189.5 -41t142 -112t96 -170t56 -212.5t17.5 -242.5q0 -163 -28.5 -299.5t-87 -245.5t-157 -171t-228.5 -63q-105 -1 -189.5 40t-142 112t-96.5 171t-56.5 213.5t-17.5 242.5zM293 748q0 -80 4.5 -146 t16 -134t33 -119t52.5 -91.5t78 -62t107 -21.5t107 21.5t78 62t52 91.5t32.5 119t16 134t4.5 146t-4.5 146t-16 134t-32.5 118.5t-52 91.5t-78 62t-107 21t-107 -21t-78 -62t-52.5 -91.5t-33 -118.5t-16 -134t-4.5 -146zM293 1802v21l133 123h20l267 -328l-11 -21h-217 l-24 21z" />
<glyph unicode="&#xd3;" d="M82 748q0 -129 17.5 -242.5t56.5 -213.5t96.5 -171t142 -112t189.5 -40q130 1 228.5 63t157 171t87 245.5t28.5 299.5q0 129 -17.5 242.5t-56 212.5t-96 170t-142 112t-189.5 41t-189.5 -41t-142 -112t-96.5 -170t-56.5 -212.5t-17.5 -242.5zM293 748q0 80 4.5 146 t16 134t33 118.5t52.5 91.5t78 62t107 21t107 -21t78 -62t52 -91.5t32.5 -118.5t16 -134t4.5 -146t-4.5 -146t-16 -134t-32.5 -119t-52 -91.5t-78 -62t-107 -21.5t-107 21.5t-78 62t-52.5 91.5t-33 119t-16 134t-4.5 146zM459 1618l266 328h20l134 -123v-21l-168 -184 l-27 -21h-215z" />
<glyph unicode="&#xd4;" d="M82 748q0 -129 17.5 -242.5t56.5 -213.5t96.5 -171t142 -112t189.5 -40q130 1 228.5 63t157 171t87 245.5t28.5 299.5q0 129 -17.5 242.5t-56 212.5t-96 170t-142 112t-189.5 41t-189.5 -41t-142 -112t-96.5 -170t-56.5 -212.5t-17.5 -242.5zM276 1710v21l205 194l21 10 h164l20 -10l205 -194v-21l-103 -113h-20l-184 166l-185 -166h-20zM293 748q0 80 4.5 146t16 134t33 118.5t52.5 91.5t78 62t107 21t107 -21t78 -62t52 -91.5t32.5 -118.5t16 -134t4.5 -146t-4.5 -146t-16 -134t-32.5 -119t-52 -91.5t-78 -62t-107 -21.5t-107 21.5t-78 62 t-52.5 91.5t-33 119t-16 134t-4.5 146z" />
<glyph unicode="&#xd5;" d="M82 748q0 -129 17.5 -242.5t56.5 -213.5t96.5 -171t142 -112t189.5 -40q130 1 228.5 63t157 171t87 245.5t28.5 299.5q0 129 -17.5 242.5t-56 212.5t-96 170t-142 112t-189.5 41t-189.5 -41t-142 -112t-96.5 -170t-56.5 -212.5t-17.5 -242.5zM250 1843l20 21h140l20 -21 q-3 -57 47 -57q17 0 55.5 20t88.5 40t94 20q103 0 161 -69t50 -179l-21 -21h-139l-21 21q3 55 -47 55q-17 0 -55.5 -20t-88.5 -40t-95 -20q-102 0 -159.5 68.5t-49.5 181.5zM293 748q0 80 4.5 146t16 134t33 118.5t52.5 91.5t78 62t107 21t107 -21t78 -62t52 -91.5 t32.5 -118.5t16 -134t4.5 -146t-4.5 -146t-16 -134t-32.5 -119t-52 -91.5t-78 -62t-107 -21.5t-107 21.5t-78 62t-52.5 91.5t-33 119t-16 134t-4.5 146z" />
<glyph unicode="&#xd6;" d="M82 748q0 -129 17.5 -242.5t56.5 -213.5t96.5 -171t142 -112t189.5 -40q130 1 228.5 63t157 171t87 245.5t28.5 299.5q0 129 -17.5 242.5t-56 212.5t-96 170t-142 112t-189.5 41t-189.5 -41t-142 -112t-96.5 -170t-56.5 -212.5t-17.5 -242.5zM266 1638v246l21 21h205 l18 -21v-246l-18 -20h-205zM293 748q0 80 4.5 146t16 134t33 118.5t52.5 91.5t78 62t107 21t107 -21t78 -62t52 -91.5t32.5 -118.5t16 -134t4.5 -146t-4.5 -146t-16 -134t-32.5 -119t-52 -91.5t-78 -62t-107 -21.5t-107 21.5t-78 62t-52.5 91.5t-33 119t-16 134t-4.5 146z M655 1638v246l21 21h205l20 -21v-246l-20 -20h-205z" />
<glyph unicode="&#xd7;" d="M127 225v29l340 340l-340 340v29l88 88h29l340 -340l340 340h28l88 -88v-29l-340 -340l340 -340v-29l-88 -88h-28l-340 340l-340 -340h-29z" />
<glyph unicode="&#xd8;" d="M41 0v20l137 220q-96 193 -96 508q0 129 17.5 242.5t56.5 212.5t96.5 170t142 112t189.5 41q190 0 313 -133l51 82l23 20h155v-20l-137 -220q96 -199 96 -507q0 -163 -28.5 -299.5t-87 -245.5t-157 -171t-228.5 -63q-195 0 -316 133l-51 -82l-22 -20h-154zM289 748 q0 -176 24 -293l473 759q-73 107 -202 107q-60 0 -107 -21.5t-79 -62t-54 -91.5t-33.5 -118t-16.5 -133.5t-5 -146.5zM379 281q71 -107 205 -107q60 0 107 21.5t79 62t54 91.5t33.5 118.5t16.5 134t5 146.5q0 168 -25 290z" />
<glyph unicode="&#xd9;" d="M102 451v1024l21 20h174l20 -20v-1035q0 -126 58 -201t188 -75q126 0 196 78t70 198v1035l21 20h174l20 -20v-1455l-20 -20h-143l-21 20l-10 62l-10 10l-11 -10q-46 -54 -129 -88.5t-168 -34.5q-209 0 -319.5 134.5t-110.5 357.5zM313 1802v21l133 123h21l266 -328 l-10 -21h-217l-25 21z" />
<glyph unicode="&#xda;" d="M102 451q0 -223 110.5 -357.5t319.5 -134.5q85 0 168 34.5t129 88.5l11 10l10 -10l10 -62l21 -20h143l20 20v1455l-20 20h-174l-21 -20v-1035q0 -120 -70 -198t-196 -78q-130 0 -188 75t-58 201v1035l-20 20h-174l-21 -20v-1024zM436 1618l266 328h21l133 -123v-21 l-168 -184l-26 -21h-216z" />
<glyph unicode="&#xdb;" d="M102 451q0 -223 110.5 -357.5t319.5 -134.5q85 0 168 34.5t129 88.5l11 10l10 -10l10 -62l21 -20h143l20 20v1455l-20 20h-174l-21 -20v-1035q0 -120 -70 -198t-196 -78q-130 0 -188 75t-58 201v1035l-20 20h-174l-21 -20v-1024zM268 1710v21l205 194l21 10h163l21 -10 l205 -194v-21l-103 -113h-20l-185 166l-184 -166h-20z" />
<glyph unicode="&#xdc;" d="M102 451q0 -223 110.5 -357.5t319.5 -134.5q85 0 168 34.5t129 88.5l11 10l10 -10l10 -62l21 -20h143l20 20v1455l-20 20h-174l-21 -20v-1035q0 -120 -70 -198t-196 -78q-130 0 -188 75t-58 201v1035l-20 20h-174l-21 -20v-1024zM258 1638v246l21 21h204l19 -21v-246 l-19 -20h-204zM647 1638v246l21 21h204l21 -21v-246l-21 -20h-204z" />
<glyph unicode="&#xdd;" d="M102 1475l373 -840v-615l21 -20h176l20 20v615l373 840l-10 20h-205l-21 -20l-245 -594l-246 594l-21 20h-204zM461 1618l266 328h21l133 -123v-21l-168 -184l-27 -21h-215z" />
<glyph unicode="&#xde;" d="M143 20v1455l21 20h174l20 -20v-287h267q201 0 330.5 -119.5t129.5 -310.5t-129.5 -310.5t-330.5 -119.5h-267v-308l-20 -20h-174zM358 532h277q99 0 167 58.5t68 167.5t-68 167t-167 58h-277v-451z" />
<glyph unicode="&#xdf;" d="M164 -246v1403q0 129 58 226t155 145.5t217 48.5q114 0 211 -48t158 -143t61 -219q0 -114 -59 -193.5t-148 -123.5q116 -49 192 -154.5t76 -244.5q0 -202 -134 -336.5t-347 -134.5l-31 20l-102 123v41h113q134 0 215.5 83.5t81.5 203.5t-75.5 203t-201.5 83h-72l-20 21 v143l20 21h21q116 0 191 69t75 176q0 106 -62 166t-163 60q-103 0 -165 -61.5t-62 -174.5v-1403l-23 -20h-160z" />
<glyph unicode="&#xe0;" d="M123 287q0 134 94.5 208.5t263.5 88.5l326 30v21q0 87 -67 130.5t-167 43.5q-90 0 -153.5 -39t-71.5 -94l-20 -21h-164l-21 21q16 128 134 217.5t296 89.5q80 0 154.5 -22.5t137.5 -65.5t101 -116t38 -165v-594l-21 -20h-143l-21 20l-10 72l-10 10l-11 -10 q-58 -49 -139 -80.5t-168 -31.5q-101 0 -180.5 33t-128.5 104t-49 170zM297 1341v21l154 113h20l246 -379l-10 -21h-195l-20 21zM319 287q0 -60 48.5 -94.5t124.5 -34.5q121 0 217 64t110 167v64q-17 -4 -317 -33q-93 -9 -138 -41t-45 -92z" />
<glyph unicode="&#xe1;" d="M123 287q0 -99 49 -170t128.5 -104t180.5 -33q87 0 168 31.5t139 80.5l11 10l10 -10l10 -72l21 -20h143l21 20v594q0 92 -38 165t-101 116t-137.5 65.5t-154.5 22.5q-178 0 -296 -89.5t-134 -217.5l21 -21h164l20 21q8 55 71.5 94t153.5 39q100 0 167 -43.5t67 -130.5 v-21q-8 -3 -326 -30q-169 -14 -263.5 -88.5t-94.5 -208.5zM319 287q0 60 45 92t138 41l317 33v-64q-14 -103 -110 -167t-217 -64q-76 0 -124.5 34.5t-48.5 94.5zM453 1096l245 379h21l153 -113v-21l-194 -245l-21 -21h-194z" />
<glyph unicode="&#xe2;" d="M123 287q0 -99 49 -170t128.5 -104t180.5 -33q87 0 168 31.5t139 80.5l11 10l10 -10l10 -72l21 -20h143l21 20v594q0 92 -38 165t-101 116t-137.5 65.5t-154.5 22.5q-178 0 -296 -89.5t-134 -217.5l21 -21h164l20 21q8 55 71.5 94t153.5 39q100 0 167 -43.5t67 -130.5 v-21q-8 -3 -326 -30q-169 -14 -263.5 -88.5t-94.5 -208.5zM274 1178v20l185 215l20 10h205l21 -10l184 -215v-20l-113 -103h-20l-174 195l-174 -195h-21zM319 287q0 60 45 92t138 41l317 33v-64q-14 -103 -110 -167t-217 -64q-76 0 -124.5 34.5t-48.5 94.5z" />
<glyph unicode="&#xe3;" d="M123 287q0 -99 49 -170t128.5 -104t180.5 -33q87 0 168 31.5t139 80.5l11 10l10 -10l10 -72l21 -20h143l21 20v594q0 92 -38 165t-101 116t-137.5 65.5t-154.5 22.5q-178 0 -296 -89.5t-134 -217.5l21 -21h164l20 21q8 55 71.5 94t153.5 39q100 0 167 -43.5t67 -130.5 v-21q-8 -3 -326 -30q-169 -14 -263.5 -88.5t-94.5 -208.5zM254 1335l20 21h136l20 -21q-3 -55 47 -55q17 0 55.5 20t88.5 40t94 20q101 0 157 -69.5t50 -174.5l-21 -20h-135l-21 20q3 55 -47 55q-17 0 -55.5 -19.5t-88.5 -39.5t-95 -20q-100 0 -155.5 69.5t-49.5 173.5z M319 287q0 60 45 92t138 41l317 33v-64q-14 -103 -110 -167t-217 -64q-76 0 -124.5 34.5t-48.5 94.5z" />
<glyph unicode="&#xe4;" d="M123 287q0 -99 49 -170t128.5 -104t180.5 -33q87 0 168 31.5t139 80.5l11 10l10 -10l10 -72l21 -20h143l21 20v594q0 92 -38 165t-101 116t-137.5 65.5t-154.5 22.5q-178 0 -296 -89.5t-134 -217.5l21 -21h164l20 21q8 55 71.5 94t153.5 39q100 0 167 -43.5t67 -130.5 v-21q-8 -3 -326 -30q-169 -14 -263.5 -88.5t-94.5 -208.5zM283 1147v246l20 20h195l18 -20v-246l-18 -21h-195zM319 287q0 60 45 92t138 41l317 33v-64q-14 -103 -110 -167t-217 -64q-76 0 -124.5 34.5t-48.5 94.5zM662 1147v246l20 20h195l20 -20v-246l-20 -21h-195z" />
<glyph unicode="&#xe5;" d="M123 287q0 134 94.5 208.5t263.5 88.5l326 30v21q0 87 -67 130.5t-167 43.5q-90 0 -153.5 -39t-71.5 -94l-20 -21h-164l-21 21q16 128 134 217.5t296 89.5q80 0 154.5 -22.5t137.5 -65.5t101 -116t38 -165v-594l-21 -20h-143l-21 20l-10 72l-10 10l-11 -10 q-58 -49 -139 -80.5t-168 -31.5q-101 0 -180.5 33t-128.5 104t-49 170zM319 287q0 -60 48.5 -94.5t124.5 -34.5q121 0 217 64t110 167v64q-17 -4 -317 -33q-93 -9 -138 -41t-45 -92zM356 1260q0 94 66.5 157.5t159.5 63.5t159 -63.5t66 -157.5t-66 -158t-159 -64t-159.5 64 t-66.5 158zM489 1260q0 -40 26.5 -66.5t66.5 -26.5t66 26.5t26 66.5t-26 66t-66 26t-66.5 -26t-26.5 -66z" />
<glyph unicode="&#xe6;" d="M41 276q0 134 80.5 215.5t216.5 102.5l133 20v31q0 158 -92 158q-46 0 -74.5 -31.5t-28.5 -85.5l-20 -20h-164l-20 20q0 127 81 212t216 85q170 0 239 -129q90 129 221 129q139 0 218 -128t79 -363l-20 -62h-430q5 -132 35.5 -199t97.5 -67q52 0 83.5 39.5t39.5 103.5h20 l133 -61l11 -21q-87 -245 -287 -245q-82 0 -154 75v-35l-20 -20h-123l-20 20l-21 62l-10 10l-10 -10q-69 -102 -175 -102q-105 0 -170 74.5t-65 221.5zM236 287q0 -56 24 -91.5t68 -35.5q68 0 106.5 60t46.5 169v62l-123 -21q-60 -10 -91 -48.5t-31 -94.5zM682 610h250 q0 82 -30 135.5t-83 53.5q-118 0 -137 -189z" />
<glyph unicode="&#xe7;" d="M143 481q0 144 69.5 260.5t181.5 179t241 62.5q142 0 255 -67.5t175 -178.5v-20l-143 -82h-21q-27 66 -97.5 115t-158.5 49q-141 0 -221 -91t-80 -227t80 -226.5t221 -90.5q88 0 159.5 49t96.5 115h21l143 -82v-21q-57 -102 -158 -167.5t-229 -75.5v-33q55 -9 100 -55 t45 -119q0 -96 -70 -155.5t-184 -59.5q-104 0 -186 63v21l72 116h20q45 -36 103 -36q31 0 51 14t20 37q0 51 -76 51h-26l-21 20v146q-164 37 -273.5 170t-109.5 319z" />
<glyph unicode="&#xe8;" d="M123 481q0 219 139 360.5t342 141.5q92 0 177 -35.5t149.5 -98t101.5 -156t33 -201.5l-21 -62h-716q0 -111 79.5 -188.5t206.5 -77.5q88 0 154.5 44t91.5 109h21l141 -92v-20q-69 -105 -172 -165t-236 -60q-96 0 -185 37t-156.5 101.5t-108.5 159.5t-41 203zM326 1341v21 l153 113h21l245 -379l-10 -21h-194l-21 21zM338 610h512q-8 80 -77.5 134.5t-168.5 54.5q-109 0 -175 -51.5t-91 -137.5z" />
<glyph unicode="&#xe9;" d="M123 481q0 219 139 360.5t342 141.5q92 0 177 -35.5t149.5 -98t101.5 -156t33 -201.5l-21 -62h-716q0 -111 79.5 -188.5t206.5 -77.5q88 0 154.5 44t91.5 109h21l141 -92v-20q-69 -105 -172 -165t-236 -60q-96 0 -185 37t-156.5 101.5t-108.5 159.5t-41 203zM338 610h512 q-8 80 -77.5 134.5t-168.5 54.5q-109 0 -175 -51.5t-91 -137.5zM494 1096l245 379h21l153 -113v-21l-194 -245l-21 -21h-194z" />
<glyph unicode="&#xea;" d="M123 481q0 219 139 360.5t342 141.5q92 0 177 -35.5t149.5 -98t101.5 -156t33 -201.5l-21 -62h-716q0 -111 79.5 -188.5t206.5 -77.5q88 0 154.5 44t91.5 109h21l141 -92v-20q-69 -105 -172 -165t-236 -60q-96 0 -185 37t-156.5 101.5t-108.5 159.5t-41 203zM301 1178v20 l184 215l21 10h205l20 -10l184 -215v-20l-112 -103h-21l-174 195l-174 -195h-20zM338 610h512q-8 80 -77.5 134.5t-168.5 54.5q-109 0 -175 -51.5t-91 -137.5z" />
<glyph unicode="&#xeb;" d="M123 481q0 219 139 360.5t342 141.5q92 0 177 -35.5t149.5 -98t101.5 -156t33 -201.5l-21 -62h-716q0 -111 79.5 -188.5t206.5 -77.5q88 0 154.5 44t91.5 109h21l141 -92v-20q-69 -105 -172 -165t-236 -60q-96 0 -185 37t-156.5 101.5t-108.5 159.5t-41 203zM297 1147 v246l20 20h195l18 -20v-246l-18 -21h-195zM338 610h512q-8 80 -77.5 134.5t-168.5 54.5q-109 0 -175 -51.5t-91 -137.5zM676 1147v246l20 20h195l20 -20v-246l-20 -21h-195z" />
<glyph unicode="&#xec;" d="M164 20v144l20 20h308v594h-226l-20 21v143l20 21h410l20 -21v-758h287l21 -20v-144l-21 -20h-799zM276 1341v21l154 113h21l245 -379l-10 -21h-194l-21 21z" />
<glyph unicode="&#xed;" d="M164 20l20 -20h799l21 20v144l-21 20h-287v758l-20 21h-410l-20 -21v-143l20 -21h226v-594h-308l-20 -20v-144zM467 1096l246 379h20l154 -113v-21l-195 -245l-20 -21h-195z" />
<glyph unicode="&#xee;" d="M164 20l20 -20h799l21 20v144l-21 20h-287v758l-20 21h-410l-20 -21v-143l20 -21h226v-594h-308l-20 -20v-144zM268 1178v20l185 215l20 10h205l20 -10l185 -215v-20l-113 -103h-20l-175 195l-174 -195h-20z" />
<glyph unicode="&#xef;" d="M164 20l20 -20h799l21 20v144l-21 20h-287v758l-20 21h-410l-20 -21v-143l20 -21h226v-594h-308l-20 -20v-144zM246 1147v246l20 20h195l18 -20v-246l-18 -21h-195zM625 1147v246l20 20h195l20 -20v-246l-20 -21h-195z" />
<glyph unicode="&#xf0;" d="M72 481q0 219 139 360.5t342 141.5q89 0 178.5 -39.5t130.5 -93.5l10 -10l11 10q3 229 -135 367l-134 -142h-20l-92 82v21l121 129q-175 88 -396 65l-12 21l92 143l23 20q227 12 420 -116l110 116h21l92 -83v-19l-105 -111q67 -71 110.5 -151.5t63.5 -170t26.5 -166.5 t6.5 -179q0 -323 -137 -509.5t-375 -186.5q-100 0 -189 35.5t-156 99.5t-106.5 159t-39.5 207zM276 481q0 -136 77 -226.5t210 -90.5q126 0 211.5 87t85.5 230q0 133 -84 225.5t-213 92.5q-133 0 -210 -91t-77 -227z" />
<glyph unicode="&#xf1;" d="M143 20l21 -20h164l20 20v562q3 89 75.5 153t170.5 64q109 0 167 -62t58 -184v-533l21 -20h164l20 20v553q0 202 -110 306t-300 104q-70 0 -138.5 -28.5t-106.5 -73.5l-11 -11l-10 11l-10 61l-21 21h-153l-21 -21v-922zM254 1335l20 21h136l20 -21q-3 -55 47 -55 q17 0 55.5 20t88.5 40t94 20q101 0 157 -69.5t50 -174.5l-21 -20h-135l-21 20q3 55 -47 55q-17 0 -55.5 -19.5t-88.5 -39.5t-95 -20q-100 0 -155.5 69.5t-49.5 173.5z" />
<glyph unicode="&#xf2;" d="M82 481q0 144 70 260.5t184.5 179t247.5 62.5t247 -62.5t184 -179t70 -260.5t-70 -260t-184 -178.5t-247 -62.5t-247.5 62.5t-184.5 178.5t-70 260zM285 481q0 -137 79 -227t220 -90t219 90t78 227t-78 227.5t-219 90.5t-220 -90.5t-79 -227.5zM287 1341v21l153 113h21 l246 -379l-11 -21h-194l-21 21z" />
<glyph unicode="&#xf3;" d="M82 481q0 144 70 260.5t184.5 179t247.5 62.5t247 -62.5t184 -179t70 -260.5t-70 -260t-184 -178.5t-247 -62.5t-247.5 62.5t-184.5 178.5t-70 260zM285 481q0 -137 79 -227t220 -90t219 90t78 227t-78 227.5t-219 90.5t-220 -90.5t-79 -227.5zM475 1096l246 379h20 l154 -113v-21l-195 -245l-20 -21h-195z" />
<glyph unicode="&#xf4;" d="M82 481q0 144 70 260.5t184.5 179t247.5 62.5t247 -62.5t184 -179t70 -260.5t-70 -260t-184 -178.5t-247 -62.5t-247.5 62.5t-184.5 178.5t-70 260zM276 1178v20l185 215l20 10h205l21 -10l184 -215v-20l-113 -103h-20l-174 195l-174 -195h-21zM285 481q0 -137 79 -227 t220 -90t219 90t78 227t-78 227.5t-219 90.5t-220 -90.5t-79 -227.5z" />
<glyph unicode="&#xf5;" d="M82 481q0 144 70 260.5t184.5 179t247.5 62.5t247 -62.5t184 -179t70 -260.5t-70 -260t-184 -178.5t-247 -62.5t-247.5 62.5t-184.5 178.5t-70 260zM256 1335l20 21h136l20 -21q-3 -55 47 -55q17 0 55.5 20t88.5 40t94 20q101 0 157 -69.5t50 -174.5l-21 -20h-135l-20 20 q3 55 -48 55q-17 0 -55.5 -19.5t-88.5 -39.5t-95 -20q-100 0 -155.5 69.5t-49.5 173.5zM285 481q0 -137 79 -227t220 -90t219 90t78 227t-78 227.5t-219 90.5t-220 -90.5t-79 -227.5z" />
<glyph unicode="&#xf6;" d="M82 481q0 144 70 260.5t184.5 179t247.5 62.5t247 -62.5t184 -179t70 -260.5t-70 -260t-184 -178.5t-247 -62.5t-247.5 62.5t-184.5 178.5t-70 260zM276 1147v246l21 20h195l18 -20v-246l-18 -21h-195zM285 481q0 -137 79 -227t220 -90t219 90t78 227t-78 227.5 t-219 90.5t-220 -90.5t-79 -227.5zM655 1147v246l21 20h194l21 -20v-246l-21 -21h-194z" />
<glyph unicode="&#xf7;" d="M102 532v123l21 21h921l21 -21v-123l-21 -20h-921zM451 102v246l20 21h225l21 -21v-246l-21 -20h-225zM451 840v245l20 21h225l21 -21v-245l-21 -21h-225z" />
<glyph unicode="&#xf8;" d="M41 0v20l143 152q-102 133 -102 309q0 144 70 260.5t184.5 179t247.5 62.5q159 0 290 -92l50 51l28 21h174v-21l-145 -151q104 -129 104 -310q0 -144 -70 -260t-184 -178.5t-247 -62.5q-162 0 -291 90l-47 -50l-31 -20h-174zM287 481q0 -100 35 -166l421 441 q-68 43 -159 43q-141 0 -219 -90.5t-78 -227.5zM422 207q72 -43 162 -43q141 0 219 90t78 227q0 93 -37 166z" />
<glyph unicode="&#xf9;" d="M143 389v553l21 21h164l20 -21v-532q0 -122 58 -184t167 -62q97 0 169.5 63t76.5 152v563l21 21h164l20 -21v-922l-20 -20h-144l-20 20l-21 62l-10 10l-10 -10q-38 -45 -107 -73.5t-139 -28.5q-190 0 -300 103.5t-110 305.5zM311 1341v21l154 113h20l246 -379l-10 -21 h-195l-20 21z" />
<glyph unicode="&#xfa;" d="M143 389q0 -202 110 -305.5t300 -103.5q70 0 139 28.5t107 73.5l10 10l10 -10l21 -62l20 -20h144l20 20v922l-20 21h-164l-21 -21v-563q-4 -89 -76.5 -152t-169.5 -63q-109 0 -167 62t-58 184v532l-20 21h-164l-21 -21v-553zM461 1096l246 379h20l154 -113v-21l-195 -245 l-20 -21h-195z" />
<glyph unicode="&#xfb;" d="M143 389q0 -202 110 -305.5t300 -103.5q70 0 139 28.5t107 73.5l10 10l10 -10l21 -62l20 -20h144l20 20v922l-20 21h-164l-21 -21v-563q-4 -89 -76.5 -152t-169.5 -63q-109 0 -167 62t-58 184v532l-20 21h-164l-21 -21v-553zM274 1178v20l185 215l20 10h205l21 -10 l184 -215v-20l-113 -103h-20l-174 195l-174 -195h-21z" />
<glyph unicode="&#xfc;" d="M143 389q0 -202 110 -305.5t300 -103.5q70 0 139 28.5t107 73.5l10 10l10 -10l21 -62l20 -20h144l20 20v922l-20 21h-164l-21 -21v-563q-4 -89 -76.5 -152t-169.5 -63q-109 0 -167 62t-58 184v532l-20 21h-164l-21 -21v-553zM276 1147v246l21 20h195l18 -20v-246l-18 -21 h-195zM655 1147v246l21 20h194l21 -20v-246l-21 -21h-194z" />
<glyph unicode="&#xfd;" d="M113 942l370 -842l-217 -510l21 -20h164l20 20l584 1352l-11 21h-184l-20 -21l-254 -606l-258 606l-21 21h-184zM457 1096l245 379h21l154 -113v-21l-195 -245l-20 -21h-195z" />
<glyph unicode="&#xfe;" d="M123 -410v1946l20 20h164l21 -20v-655l10 -11l10 11q47 47 114 74.5t142 27.5q203 0 342 -141.5t139 -360.5t-139 -360t-342 -141q-74 0 -141.5 27.5t-114.5 74.5l-10 10l-10 -10v-492l-21 -20h-164zM307 481q0 -134 79.5 -225.5t207.5 -91.5q140 0 213.5 89.5 t73.5 227.5t-73.5 228t-213.5 90q-128 0 -207.5 -92t-79.5 -226z" />
<glyph unicode="&#xff;" d="M113 942l370 -842l-217 -510l21 -20h164l20 20l584 1352l-11 21h-184l-20 -21l-254 -606l-258 606l-21 21h-184zM279 1147v246l20 20h195l18 -20v-246l-18 -21h-195zM657 1147v246l21 20h194l21 -20v-246l-21 -21h-194z" />
<glyph unicode="&#x152;" d="M61 748q0 129 16.5 241.5t52.5 210t90 167t133.5 109.5t178.5 40q65 0 164 -21h410l20 -20v-164l-20 -21h-369v-430h348l21 -20v-164l-21 -21h-348v-450h369l20 -21v-164l-20 -20h-410q-94 -20 -164 -20q-99 0 -178.5 40t-133.5 109.5t-90 167t-52.5 210t-16.5 241.5z M266 748q0 -119 13 -217.5t42.5 -182t83 -127.5t127.5 -37v1127q-59 6 -106 -24.5t-76.5 -85t-49 -131t-27 -155.5t-7.5 -167z" />
<glyph unicode="&#x153;" d="M41 276q0 134 80.5 215.5t216.5 102.5l133 20v31q0 158 -92 158q-46 0 -74.5 -31.5t-28.5 -85.5l-20 -20h-164l-20 20q0 127 81 212t216 85q162 0 233 -119q80 119 207 119q156 0 236.5 -135.5t80.5 -366.5t-80.5 -366t-236.5 -135q-86 0 -154 55v-15l-20 -20h-123 l-20 20l-21 62l-10 10l-10 -10q-69 -102 -175 -102q-105 0 -170 74.5t-65 221.5zM236 287q0 -56 24 -91.5t68 -35.5q68 0 106.5 60t46.5 169v62l-123 -21q-60 -10 -91 -48.5t-31 -94.5zM676 481q0 -71 5 -124t18 -99t38 -70t62 -24t62 24t38 70t18 99t5 124t-5 124t-18 99.5 t-38 70.5t-62 24t-62 -24t-38 -70.5t-18 -99.5t-5 -124z" />
<glyph unicode="&#x178;" d="M102 1475l373 -840v-615l21 -20h176l20 20v615l373 840l-10 20h-205l-21 -20l-245 -594l-246 594l-21 20h-204zM266 1638v246l21 21h205l18 -21v-246l-18 -20h-205zM655 1638v246l21 21h205l20 -21v-246l-20 -20h-205z" />
<glyph unicode="&#x2c6;" d="M276 1178v20l185 215l20 10h205l21 -10l184 -215v-20l-113 -103h-20l-174 195l-174 -195h-21z" />
<glyph unicode="&#x2dc;" d="M250 1335l20 21h136l20 -21q-3 -55 47 -55q17 0 55.5 20t88.5 40t94 20q101 0 157 -69.5t50 -174.5l-21 -20h-135l-21 20q3 55 -47 55q-17 0 -55.5 -19.5t-88.5 -39.5t-95 -20q-100 0 -155.5 69.5t-49.5 173.5z" />
<glyph unicode="&#x2000;" horiz-adv-x="996" />
<glyph unicode="&#x2001;" horiz-adv-x="1993" />
<glyph unicode="&#x2002;" horiz-adv-x="996" />
<glyph unicode="&#x2003;" horiz-adv-x="1993" />
<glyph unicode="&#x2004;" horiz-adv-x="664" />
<glyph unicode="&#x2005;" horiz-adv-x="498" />
<glyph unicode="&#x2006;" horiz-adv-x="332" />
<glyph unicode="&#x2007;" horiz-adv-x="332" />
<glyph unicode="&#x2008;" horiz-adv-x="249" />
<glyph unicode="&#x2009;" horiz-adv-x="398" />
<glyph unicode="&#x200a;" horiz-adv-x="110" />
<glyph unicode="&#x2010;" d="M287 471v205l20 20h553l21 -20v-205l-21 -20h-553z" />
<glyph unicode="&#x2011;" d="M287 471v205l20 20h553l21 -20v-205l-21 -20h-553z" />
<glyph unicode="&#x2012;" d="M287 471v205l20 20h553l21 -20v-205l-21 -20h-553z" />
<glyph unicode="&#x2013;" d="M143 492v163l21 21h840l20 -21v-163l-20 -21h-840z" />
<glyph unicode="&#x2014;" d="M0 492v163l20 21h1127l20 -21v-163l-20 -21h-1127z" />
<glyph unicode="&#x2018;" d="M348 983l287 512h20l174 -102v-21l-225 -389l-20 -20h-215z" />
<glyph unicode="&#x2019;" d="M338 1065v20l225 390l21 20h215l20 -20l-287 -512h-20z" />
<glyph unicode="&#x201a;" d="M328 -184l286 512h21l174 -103v-20l-225 -389l-21 -21h-215z" />
<glyph unicode="&#x201c;" d="M164 983l205 512h20l184 -82v-20l-163 -410l-21 -20h-205zM594 983l205 512h20l185 -82v-20l-164 -410l-21 -20h-205z" />
<glyph unicode="&#x201d;" d="M164 1044v21l164 410l20 20h205l20 -20l-204 -512h-21zM594 1044v21l164 410l20 20h205l21 -20l-205 -512h-21z" />
<glyph unicode="&#x201e;" d="M164 -184l205 512h20l184 -82v-21l-163 -409l-21 -21h-205zM594 -184l205 512h20l185 -82v-21l-164 -409l-21 -21h-205z" />
<glyph unicode="&#x2022;" d="M133 696q0 186 132.5 318.5t318.5 132.5t318 -132.5t132 -318.5t-132 -318t-318 -132t-318.5 132t-132.5 318zM317 471q0 -17 12 -29t29 -12t28 12t11 29t-11 29t-28 12t-29 -12t-12 -29z" />
<glyph unicode="&#x2026;" d="M61 20v267l21 20h225l21 -20v-267l-21 -20h-225zM512 20v267l20 20h185l20 -20v-267l-20 -20h-185zM922 20v267l20 20h143l21 -20v-267l-21 -20h-143z" />
<glyph unicode="&#x202f;" horiz-adv-x="398" />
<glyph unicode="&#x2039;" d="M287 594v20l553 451h20v-205l-20 -20l-299 -236l299 -235l20 -21v-205h-20z" />
<glyph unicode="&#x203a;" d="M307 143v205l21 21l299 235l-299 236l-21 20v205h21l553 -451v-20l-553 -451h-21z" />
<glyph unicode="&#x205f;" horiz-adv-x="498" />
<glyph unicode="&#x20ac;" d="M102 512l11 20l92 21q-10 76 -10 195q0 118 10 194l-92 21l-11 20l31 133l21 10l86 -18q54 193 167.5 300.5t278.5 107.5q176 0 285.5 -115.5t134.5 -294.5l-21 -21h-153l-21 21q-4 44 -19.5 83.5t-43.5 73t-72.5 53t-99.5 19.5q-186 0 -248 -270l330 -72l10 -20 l-31 -133l-20 -11l-311 68q-7 -82 -7 -149q0 -70 7 -152l311 70l20 -11l31 -133l-10 -20l-330 -74q61 -268 248 -268q55 0 99.5 19.5t72.5 53t43.5 73t19.5 83.5l21 21h153l21 -21q-16 -116 -67 -206.5t-142.5 -146.5t-210.5 -56q-165 0 -278.5 107.5t-167.5 299.5l-86 -18 l-21 10z" />
<glyph unicode="&#x2122;" d="M20 1372v103l21 20h389l21 -20v-103l-21 -20h-123v-656l-20 -20h-103l-20 20v656h-123zM492 696v779l20 20h164l20 -20l103 -400l102 400l21 20h163l21 -20v-779l-21 -20h-92l-20 20v635l-92 -389l-21 -20h-123l-20 20l-92 389v-635l-21 -20h-92z" />
<glyph unicode="&#x25fc;" horiz-adv-x="962" d="M0 0v963h963v-963h-963z" />
</font>
</defs>
</svg>
